<svg width="23" height="22" viewBox="0 0 23 22" fill="none" xmlns="http://www.w3.org/2000/svg">
<path d="M22.2242 4.81615C22.2356 4.73207 22.2356 4.64682 22.2242 4.56273C22.2136 4.49188 22.1933 4.42283 22.1638 4.35758C22.1319 4.2986 22.0956 4.24212 22.0552 4.18863C22.0093 4.1123 21.9524 4.04317 21.8863 3.98348L21.7414 3.899C21.6718 3.84706 21.5944 3.80634 21.5122 3.77832H21.2708C21.1973 3.70712 21.1114 3.64987 21.0174 3.60938H14.9835C14.6634 3.60938 14.3565 3.73652 14.1302 3.96283C13.9038 4.18915 13.7767 4.4961 13.7767 4.81615C13.7767 5.13621 13.9038 5.44316 14.1302 5.66948C14.3565 5.89579 14.6634 6.02293 14.9835 6.02293H18.3987L13.5715 11.7069L8.35826 8.60544C8.11133 8.45858 7.8201 8.40463 7.53695 8.45329C7.2538 8.50196 6.9973 8.65005 6.81358 8.87093L0.779684 16.1116C0.67807 16.2336 0.601512 16.3743 0.554394 16.5259C0.507276 16.6775 0.490524 16.8369 0.505097 16.9949C0.51967 17.153 0.565281 17.3066 0.63932 17.447C0.713358 17.5874 0.814368 17.7119 0.936565 17.8132C1.15368 17.9931 1.42694 18.0913 1.7089 18.0907C1.88619 18.091 2.06137 18.0522 2.22197 17.9772C2.38257 17.9021 2.52466 17.7925 2.63812 17.6563L8.00829 11.2121L13.1612 14.3014C13.4057 14.4464 13.6934 14.5005 13.9737 14.4541C14.2541 14.4078 14.5091 14.2639 14.6939 14.048L19.8106 8.07446V10.8501C19.8106 11.1701 19.9377 11.4771 20.1641 11.7034C20.3904 11.9297 20.6973 12.0568 21.0174 12.0568C21.3374 12.0568 21.6444 11.9297 21.8707 11.7034C22.097 11.4771 22.2242 11.1701 22.2242 10.8501V4.81615Z" fill="#475467"/>
</svg>
