<svg width="19" height="20" viewBox="0 0 19 20" fill="none" xmlns="http://www.w3.org/2000/svg">
<path d="M8.39882 12.1332C9.25991 12.3608 11.1413 12.8575 11.4404 11.6556C11.747 10.426 9.92122 10.0168 9.03128 9.81702C8.93192 9.79565 8.84432 9.77429 8.77167 9.75719L8.19263 12.0798C8.25139 12.0937 8.32083 12.1118 8.39882 12.1332ZM9.2097 8.73906C9.92763 8.93136 11.4938 9.34802 11.7663 8.25616C12.044 7.13867 10.5227 6.80321 9.77913 6.63761C9.70663 6.62177 9.63433 6.60503 9.56225 6.5874L9.03662 8.69419C9.08684 8.70594 9.14453 8.72196 9.2097 8.73906Z" fill="#3F3F3F"/>
<path fill-rule="evenodd" clip-rule="evenodd" d="M7.28561 18.9386C9.73472 19.4865 12.301 19.0552 14.4364 17.7367C16.5718 16.4182 18.107 14.317 18.7143 11.8819C19.3215 9.44683 18.9526 6.87083 17.6863 4.70405C16.4201 2.53727 14.3568 0.951443 11.9372 0.285248C9.46377 -0.331076 6.84682 0.0602198 4.66185 1.37308C2.47688 2.68595 0.902806 4.81288 0.285788 7.28614C-0.331187 9.75959 0.0596779 12.3768 1.3724 14.5621C2.68512 16.7473 4.81216 18.3216 7.28561 18.9386ZM11.7353 5.84921C13.0675 6.3086 14.0429 6.99555 13.8506 8.27436C13.7117 9.2113 13.1925 9.66535 12.5034 9.82347C13.45 10.317 13.9318 11.0734 13.4724 12.3832C12.9041 14.0093 11.5505 14.146 9.75136 13.8063L9.3144 15.5562L8.25994 15.2934L8.69049 13.567C8.40948 13.4972 8.1292 13.4246 7.8497 13.349L7.41701 15.0829L6.36362 14.8201L6.79951 13.068L6.52601 12.9965L6.04739 12.8736L4.67456 12.5317L5.19805 11.3245C5.19805 11.3245 5.97581 11.5307 5.96513 11.5147C6.26427 11.5894 6.39674 11.3939 6.44909 11.2647L7.13924 8.49871C7.16919 8.50606 7.1991 8.51354 7.22899 8.52115L7.25035 8.52649C7.21449 8.51232 7.17773 8.50054 7.14031 8.49123L7.63175 6.51693C7.64564 6.29257 7.56765 6.00946 7.14031 5.90369C7.15741 5.89301 6.37538 5.71246 6.37538 5.71246L6.65528 4.58642L8.11037 4.94966V4.955C8.32832 5.00842 8.55374 5.06077 8.78343 5.11312L9.21611 3.38025L10.2695 3.64307L9.84644 5.34174C10.1296 5.40584 10.4148 5.47101 10.6915 5.54046L11.1124 3.85246L12.168 4.11635L11.7353 5.84921Z" fill="#475467"/>
</svg>
