<svg width="66" height="20" viewBox="0 0 66 20" fill="none" xmlns="http://www.w3.org/2000/svg">
<path d="M5.95635 12.5512C5.89897 12.7681 5.71249 12.8206 5.54752 12.6667L2.27323 9.68568C2.10467 9.53173 2.14053 9.3393 2.35571 9.25533L6.94976 7.46393C7.16494 7.37996 7.29046 7.49192 7.23308 7.70885L5.95635 12.5512Z" fill="url(#paint0_linear_24_250)"/>
<path d="M3.25229 15.3853C3.07656 15.5322 2.90083 15.4727 2.86138 15.2488L1.9648 10.4029C1.92535 10.1825 2.02936 10.1265 2.19791 10.2805L5.31441 13.118C5.48296 13.272 5.47938 13.5169 5.30365 13.6638L3.25229 15.3853Z" fill="url(#paint1_linear_24_250)"/>
<path d="M7.01073 6.49826C7.16135 6.6697 7.10756 6.87613 6.89597 6.9601L2.32702 8.741C2.11184 8.82497 2.00425 8.72001 2.08315 8.51008L3.95879 3.59074C4.03768 3.38082 4.22776 3.34583 4.37838 3.51727L7.01073 6.49826Z" fill="url(#paint2_linear_24_250)"/>
<path d="M2.2266 14.5595C2.26605 14.78 2.19791 14.808 2.07239 14.619L0.300761 11.9494C0.17524 11.7605 0.185999 11.4596 0.322279 11.2776L1.11485 10.242C1.25113 10.0636 1.39817 10.095 1.4412 10.3155L2.2266 14.5595Z" fill="url(#paint3_linear_24_250)"/>
<path d="M1.66714 8.20918C1.58824 8.41911 1.46272 8.41911 1.38741 8.20568L0.781325 6.43528C0.709599 6.22185 0.788497 5.92445 0.96064 5.77401L3.11959 3.86715C3.29173 3.7167 3.36346 3.76568 3.28456 3.97561L1.66714 8.20918Z" fill="url(#paint4_linear_24_250)"/>
<path d="M1.09692 8.89145C1.16865 9.10488 1.11844 9.42677 0.978571 9.60521L0.361728 10.4169C0.225449 10.5954 0.132205 10.5604 0.153723 10.3365L0.451385 7.52341C0.476489 7.29949 0.555388 7.29249 0.627114 7.50592L1.09692 8.89145Z" fill="url(#paint5_linear_24_250)"/>
<path d="M3.53202 2.55859C3.60733 2.64606 3.53202 2.8385 3.35987 2.99245L2.39157 3.84966C2.21943 4.00011 2.19433 3.97561 2.33061 3.79717L3.1447 2.73004C3.28097 2.5481 3.4567 2.47112 3.53202 2.55859Z" fill="url(#paint6_linear_24_250)"/>
<path d="M9.65742 17.5265C9.54265 17.719 9.33823 17.7295 9.20913 17.544L6.67003 13.9402C6.54092 13.7548 6.61982 13.5834 6.84934 13.5624L11.9491 13.048C12.1786 13.0236 12.2718 13.1635 12.1535 13.3594L9.65742 17.5265Z" fill="url(#paint7_linear_24_250)"/>
<path d="M8.59587 17.53C8.72498 17.7155 8.65325 17.8064 8.43807 17.7365L3.65754 16.1515C3.43877 16.078 3.40291 15.8996 3.57864 15.7526L5.62641 14.0312C5.80214 13.8843 6.0496 13.9158 6.18229 14.1012L8.59587 17.53Z" fill="url(#paint8_linear_24_250)"/>
<path d="M12.0566 12.2118C12.2073 12.3833 12.1427 12.5407 11.9132 12.5652L6.73817 13.0865C6.50864 13.111 6.36878 12.9501 6.42616 12.7332L7.72081 7.81732C7.77819 7.60039 7.94675 7.5619 8.09737 7.72984L12.0566 12.2118Z" fill="url(#paint9_linear_24_250)"/>
<path d="M15.7721 16.4244C15.9227 16.5958 15.8617 16.7708 15.6358 16.8198L10.3711 17.9009C10.1452 17.9464 10.0555 17.8274 10.1738 17.6315L12.6556 13.4889C12.7703 13.2965 12.9891 13.2755 13.1397 13.4469L15.7721 16.4244Z" fill="url(#paint10_linear_24_250)"/>
<path d="M7.3048 19.1885C7.10038 19.2934 6.79555 19.2584 6.62341 19.1115L4.17755 17.0052C4.00541 16.8548 4.04127 16.7953 4.26003 16.8653L8.44166 18.2508C8.66042 18.3243 8.67118 18.4677 8.47035 18.5762L7.3048 19.1885Z" fill="url(#paint11_linear_24_250)"/>
<path d="M12.9819 19.3879C12.8026 19.5313 12.4906 19.5628 12.2826 19.4614L10.5791 18.6147C10.3747 18.5132 10.389 18.3907 10.615 18.3453L15.1516 17.4146C15.3776 17.3691 15.417 17.4461 15.2377 17.5895L12.9819 19.3879Z" fill="url(#paint12_linear_24_250)"/>
<path d="M8.23365 19.4894C8.00413 19.4789 7.98261 19.3844 8.18345 19.2759L9.09795 18.7966C9.30237 18.6916 9.6359 18.6881 9.84031 18.7896L11.1744 19.4509C11.3788 19.5523 11.3609 19.6293 11.1278 19.6188L8.23365 19.4894Z" fill="url(#paint13_linear_24_250)"/>
<path d="M16.622 17.3831C16.6973 17.4705 16.5969 17.628 16.3925 17.733L15.1911 18.3592C14.9867 18.4642 14.9687 18.4362 15.1445 18.2928L16.1594 17.4845C16.3351 17.3411 16.5431 17.2956 16.622 17.3831Z" fill="url(#paint14_linear_24_250)"/>
<path d="M13.5808 12.1593C13.3656 12.2433 13.2401 12.1314 13.2975 11.9144L14.5742 7.07207C14.6316 6.85514 14.8181 6.80266 14.9867 6.95661L18.2609 9.9376C18.4295 10.0915 18.3936 10.284 18.1785 10.368L13.5808 12.1593Z" fill="url(#paint15_linear_24_250)"/>
<path d="M18.5694 9.22034C18.6088 9.44076 18.5048 9.49675 18.3363 9.3428L15.2198 6.50526C15.0512 6.35131 15.0548 6.10639 15.2305 5.95944L17.2783 4.23803C17.454 4.09107 17.6298 4.15055 17.6692 4.37448L18.5694 9.22034Z" fill="url(#paint16_linear_24_250)"/>
<path d="M16.5718 16.0325C16.4929 16.2425 16.3028 16.2775 16.1522 16.106L13.5199 13.125C13.3692 12.9536 13.423 12.7471 13.6346 12.6632L18.2036 10.8823C18.4187 10.7983 18.5263 10.9033 18.4474 11.1132L16.5718 16.0325Z" fill="url(#paint17_linear_24_250)"/>
<path d="M20.2298 7.67386C20.3553 7.8628 20.3446 8.1637 20.2083 8.34564L19.4157 9.37779C19.2795 9.55623 19.1324 9.52474 19.0894 9.30431L18.304 5.06375C18.2645 4.84332 18.3327 4.81533 18.4582 5.00427L20.2298 7.67386Z" fill="url(#paint18_linear_24_250)"/>
<path d="M19.7457 13.1915C19.8174 13.4049 19.7385 13.7023 19.5664 13.8528L17.4074 15.7596C17.2353 15.9101 17.1635 15.8611 17.2424 15.6512L18.8599 11.4141C18.9388 11.2042 19.0643 11.2042 19.1396 11.4176L19.7457 13.1915Z" fill="url(#paint19_linear_24_250)"/>
<path d="M20.0828 12.0964C20.0577 12.3203 19.9788 12.3273 19.9071 12.1139L19.4337 10.7283C19.3619 10.5149 19.4157 10.193 19.552 10.0146L20.1724 9.20285C20.3087 9.02441 20.402 9.05939 20.3804 9.28332L20.0828 12.0964Z" fill="url(#paint20_linear_24_250)"/>
<path d="M17.3859 16.8932C17.2496 17.0752 17.0739 17.1487 16.995 17.0647C16.9197 16.9772 16.995 16.7848 17.1671 16.6308L18.139 15.7736C18.3112 15.6232 18.3363 15.6477 18.2 15.8261L17.3859 16.8932Z" fill="url(#paint21_linear_24_250)"/>
<path d="M13.8606 5.68304C13.9897 5.86847 13.9108 6.03992 13.6812 6.06091L8.58152 6.57523C8.352 6.59973 8.25876 6.45977 8.3771 6.26384L10.8732 2.09675C10.9879 1.90431 11.1923 1.89382 11.3215 2.07926L13.8606 5.68304Z" fill="url(#paint22_linear_24_250)"/>
<path d="M14.9042 5.59207C14.7284 5.73902 14.481 5.70753 14.3483 5.52209L11.9347 2.09325C11.8056 1.90781 11.8773 1.81684 12.0925 1.88682L16.873 3.47178C17.0918 3.54526 17.1277 3.7237 16.9519 3.87065L14.9042 5.59207Z" fill="url(#paint23_linear_24_250)"/>
<path d="M12.8098 11.806C12.7524 12.0229 12.5838 12.0614 12.4332 11.8934L8.47752 7.41145C8.3269 7.24001 8.39145 7.08256 8.62097 7.05807L13.796 6.53675C14.0255 6.51226 14.1654 6.6732 14.108 6.89013L12.8098 11.806Z" fill="url(#paint24_linear_24_250)"/>
<path d="M7.87502 6.13788C7.76026 6.33032 7.5415 6.35131 7.39087 6.17987L4.75853 3.19888C4.6079 3.02743 4.66887 2.85249 4.89481 2.80351L10.1595 1.72238C10.3854 1.67689 10.4751 1.79585 10.3567 1.99179L7.87502 6.13788Z" fill="url(#paint25_linear_24_250)"/>
<path d="M12.0889 1.37249C11.8702 1.29902 11.8594 1.15557 12.0602 1.0471L13.2258 0.438311C13.4302 0.333346 13.735 0.368334 13.9108 0.515285L16.353 2.62157C16.5252 2.77202 16.4893 2.8315 16.2705 2.76152L12.0889 1.37249Z" fill="url(#paint26_linear_24_250)"/>
<path d="M5.37896 2.20871C5.15302 2.2542 5.11357 2.17722 5.29289 2.03377L7.54508 0.235379C7.7244 0.091928 8.03641 0.0604386 8.24441 0.161904L9.95149 1.00862C10.1559 1.11008 10.1416 1.23254 9.91563 1.27803L5.37896 2.20871Z" fill="url(#paint27_linear_24_250)"/>
<path d="M11.4362 0.823181C11.2318 0.928145 10.8983 0.931644 10.6939 0.830178L9.35975 0.168902C9.15533 0.0674363 9.17326 -0.0095377 9.40637 0.000958745L12.3005 0.130415C12.53 0.140911 12.5516 0.235379 12.3507 0.343843L11.4362 0.823181Z" fill="url(#paint28_linear_24_250)"/>
<path d="M4.3748 2.13874C4.19548 2.28219 3.98748 2.32767 3.91216 2.2402C3.83685 2.15273 3.93727 1.99528 4.14169 1.89032L5.3431 1.26403C5.54752 1.15907 5.56545 1.18706 5.38972 1.33051L4.3748 2.13874Z" fill="url(#paint29_linear_24_250)"/>
<path d="M2.83269 16.3789C2.92234 16.3054 3.11959 16.3789 3.27739 16.5469L4.15603 17.495C4.31024 17.663 4.28514 17.6875 4.10224 17.5545L3.00483 16.7603C2.82193 16.6273 2.74303 16.4559 2.83269 16.3789Z" fill="url(#paint30_linear_24_250)"/>
<path d="M18.0242 3.61174C18.1139 3.53826 18.2753 3.63623 18.3829 3.83566L19.0248 5.00777C19.1324 5.2072 19.1037 5.22469 18.9567 5.05325L18.1283 4.06308C17.9848 3.89164 17.9382 3.68521 18.0242 3.61174Z" fill="url(#paint31_linear_24_250)"/>
<path d="M17.5257 2.86299C17.7122 2.99595 17.7875 3.16739 17.7015 3.24436C17.6118 3.31784 17.4146 3.24436 17.2568 3.07642L16.3781 2.12824C16.2239 1.9603 16.249 1.9358 16.4319 2.06876L17.5257 2.86299Z" fill="url(#paint32_linear_24_250)"/>
<path d="M2.40233 15.5602C2.54937 15.7351 2.59599 15.9381 2.50633 16.0115C2.41668 16.085 2.25529 15.9871 2.1477 15.7876L1.50576 14.6155C1.39817 14.4161 1.42686 14.3986 1.5739 14.57L2.40233 15.5602Z" fill="url(#paint33_linear_24_250)"/>
<path d="M32.3864 5.922C33.0979 6.32245 33.661 6.86483 34.0756 7.54408C34.4903 8.22839 34.7001 8.9786 34.7001 9.79471C34.7001 10.6108 34.4903 11.3661 34.0756 12.0555C33.661 12.7449 33.0928 13.2923 32.3864 13.6978C31.6748 14.1034 30.8967 14.3061 30.0418 14.3061C29.1921 14.3061 28.4089 14.1034 27.6973 13.6978C26.9858 13.2923 26.4227 12.7449 26.0081 12.0555C25.5934 11.3661 25.3835 10.6108 25.3835 9.79471C25.3835 8.9786 25.5934 8.22839 26.0081 7.54408C26.4227 6.85976 26.9909 6.32245 27.6973 5.922C28.4089 5.52155 29.187 5.32386 30.0418 5.32386C30.8967 5.31879 31.6748 5.52155 32.3864 5.922ZM28.1683 6.59618C27.5898 6.92567 27.1291 7.37174 26.7913 7.93439C26.4483 8.49705 26.2794 9.12054 26.2794 9.79471C26.2794 10.4689 26.4483 11.0924 26.7913 11.6652C27.1291 12.238 27.5898 12.6891 28.1683 13.0237C28.7467 13.3582 29.3764 13.5255 30.0572 13.5255C30.7278 13.5255 31.3523 13.3582 31.9256 13.0237C32.499 12.6891 32.9597 12.238 33.2975 11.6652C33.6354 11.0924 33.8094 10.4689 33.8094 9.79471C33.8094 8.97354 33.5535 8.22839 33.0467 7.56943C32.801 7.25008 32.499 6.96622 32.1611 6.74318C31.5212 6.31739 30.8199 6.10449 30.0572 6.10449C29.3764 6.10449 28.7467 6.2667 28.1683 6.59618Z" fill="#23182D"/>
<path d="M44.1396 14.0476L42.3377 11.3509C42.0664 11.3661 41.8565 11.3762 41.7132 11.3762H39.2612V13.8195C39.2612 14.0476 39.0769 14.2301 38.8465 14.2301H38.7954C38.565 14.2301 38.3807 14.0476 38.3807 13.8195V5.39483H41.7132C42.8291 5.39483 43.6891 5.64828 44.2983 6.16024C44.9075 6.67221 45.2095 7.39201 45.2095 8.32977C45.2095 9.06478 45.0303 9.67306 44.672 10.1647C44.3137 10.6514 43.8018 10.9961 43.1414 11.1887L44.8307 13.5863C45.0252 13.86 44.8256 14.2351 44.4877 14.2351C44.3495 14.2351 44.2164 14.1642 44.1396 14.0476ZM41.7132 10.5905C42.563 10.5905 43.2182 10.3979 43.6789 10.0177C44.1396 9.63251 44.37 9.07998 44.37 8.35512C44.37 7.64546 44.1396 7.10815 43.6789 6.73811C43.2182 6.36808 42.563 6.18052 41.7132 6.18052H39.2612V10.5905H41.7132Z" fill="#23182D"/>
<path d="M55.1864 5.97269C55.6932 6.363 55.9441 6.90539 55.9441 7.59477C55.9441 8.11688 55.7956 8.55788 55.5038 8.90764C55.212 9.26247 54.7974 9.49564 54.2701 9.60209C54.9254 9.68827 55.4373 9.92651 55.8007 10.3219C56.1642 10.7173 56.3485 11.2191 56.3485 11.8274C56.3485 12.5877 56.0618 13.1757 55.4936 13.5965C54.9254 14.0172 54.1319 14.2301 53.1184 14.2301H49.3405V5.38469H53.0825C53.9784 5.38469 54.6797 5.57731 55.1864 5.97269ZM54.5158 8.87722C54.8639 8.6035 55.038 8.21319 55.038 7.70629C55.038 7.21966 54.8639 6.83949 54.5158 6.57084C54.1678 6.30218 53.6763 6.17038 53.0467 6.18052H50.2261V9.28781H53.0467C53.6763 9.28781 54.1678 9.15095 54.5158 8.87722ZM54.8281 12.9983C55.2479 12.6992 55.4577 12.2785 55.4577 11.7412C55.4577 11.209 55.2428 10.7984 54.8179 10.5044C54.393 10.2104 53.7992 10.0634 53.0416 10.0634H50.221V13.4495H53.0416C53.8145 13.4495 54.4083 13.2974 54.8281 12.9983Z" fill="#23182D"/>
<path d="M64.0167 6.31231C63.5816 6.19065 63.1721 6.12983 62.7933 6.12983C62.179 6.12983 61.6876 6.25148 61.319 6.48973C60.9505 6.72797 60.7662 7.05745 60.7662 7.46804C60.7662 7.83301 60.8685 8.12701 61.0733 8.35511C61.2781 8.58322 61.5289 8.76064 61.8258 8.89243C62.1227 9.02423 62.5322 9.16616 63.0492 9.32836C63.6533 9.50578 64.1396 9.67812 64.5133 9.85047C64.8819 10.0228 65.1992 10.2763 65.4603 10.6007C65.7214 10.9302 65.8493 11.3661 65.8493 11.9034C65.8493 12.3748 65.7162 12.7905 65.4449 13.1555C65.1787 13.5204 64.7999 13.7992 64.3136 13.9969C63.8273 14.1946 63.2694 14.296 62.6397 14.296C62.0203 14.296 61.4112 14.1743 60.8225 13.931C60.3464 13.7333 59.9215 13.4849 59.553 13.1859C59.3994 13.0591 59.3636 12.8462 59.4557 12.6739C59.5786 12.4559 59.8652 12.4002 60.0597 12.5522C60.372 12.7956 60.715 12.9932 61.0938 13.1504C61.621 13.3684 62.1381 13.4799 62.65 13.4799C63.3308 13.4799 63.8734 13.343 64.2727 13.0693C64.672 12.7956 64.8716 12.4255 64.8716 11.9642C64.8716 11.5942 64.7692 11.2901 64.5645 11.0518C64.3597 10.8136 64.1089 10.6362 63.812 10.5094C63.5151 10.3827 63.0953 10.2357 62.5629 10.0684C61.9589 9.88088 61.4726 9.70853 61.1091 9.54633C60.7406 9.38412 60.4334 9.13574 60.1775 8.81132C59.9215 8.48691 59.7936 8.06111 59.7936 7.53901C59.7936 7.09294 59.9215 6.70262 60.1775 6.363C60.4334 6.02845 60.7918 5.76486 61.2525 5.58745C61.7132 5.40496 62.2456 5.31372 62.8496 5.31372C63.3359 5.31372 63.8222 5.38468 64.3136 5.52662C64.6515 5.628 64.9637 5.74966 65.2504 5.89159C65.4552 5.99297 65.5371 6.23628 65.4347 6.43904L65.4245 6.46438C65.3221 6.66714 65.0712 6.74318 64.8665 6.63673C64.5901 6.50494 64.3085 6.39848 64.0167 6.31231Z" fill="#23182D"/>
<defs>
<linearGradient id="paint0_linear_24_250" x1="10.2671" y1="8.66445e-10" x2="10.286" y2="23.8988" gradientUnits="userSpaceOnUse">
<stop stop-color="#DA88DE"/>
<stop offset="0.373617" stop-color="#5E75E8"/>
<stop offset="1" stop-color="#80C6EB"/>
</linearGradient>
<linearGradient id="paint1_linear_24_250" x1="10.2671" y1="8.66445e-10" x2="10.286" y2="23.8988" gradientUnits="userSpaceOnUse">
<stop stop-color="#DA88DE"/>
<stop offset="0.373617" stop-color="#5E75E8"/>
<stop offset="1" stop-color="#80C6EB"/>
</linearGradient>
<linearGradient id="paint2_linear_24_250" x1="10.2671" y1="8.66445e-10" x2="10.286" y2="23.8988" gradientUnits="userSpaceOnUse">
<stop stop-color="#DA88DE"/>
<stop offset="0.373617" stop-color="#5E75E8"/>
<stop offset="1" stop-color="#80C6EB"/>
</linearGradient>
<linearGradient id="paint3_linear_24_250" x1="10.2671" y1="8.66445e-10" x2="10.286" y2="23.8988" gradientUnits="userSpaceOnUse">
<stop stop-color="#DA88DE"/>
<stop offset="0.373617" stop-color="#5E75E8"/>
<stop offset="1" stop-color="#80C6EB"/>
</linearGradient>
<linearGradient id="paint4_linear_24_250" x1="10.2671" y1="8.66445e-10" x2="10.286" y2="23.8988" gradientUnits="userSpaceOnUse">
<stop stop-color="#DA88DE"/>
<stop offset="0.373617" stop-color="#5E75E8"/>
<stop offset="1" stop-color="#80C6EB"/>
</linearGradient>
<linearGradient id="paint5_linear_24_250" x1="10.2671" y1="8.66445e-10" x2="10.286" y2="23.8988" gradientUnits="userSpaceOnUse">
<stop stop-color="#DA88DE"/>
<stop offset="0.373617" stop-color="#5E75E8"/>
<stop offset="1" stop-color="#80C6EB"/>
</linearGradient>
<linearGradient id="paint6_linear_24_250" x1="10.2671" y1="8.66445e-10" x2="10.286" y2="23.8988" gradientUnits="userSpaceOnUse">
<stop stop-color="#DA88DE"/>
<stop offset="0.373617" stop-color="#5E75E8"/>
<stop offset="1" stop-color="#80C6EB"/>
</linearGradient>
<linearGradient id="paint7_linear_24_250" x1="10.2671" y1="8.66445e-10" x2="10.286" y2="23.8988" gradientUnits="userSpaceOnUse">
<stop stop-color="#DA88DE"/>
<stop offset="0.373617" stop-color="#5E75E8"/>
<stop offset="1" stop-color="#80C6EB"/>
</linearGradient>
<linearGradient id="paint8_linear_24_250" x1="10.2671" y1="8.66445e-10" x2="10.286" y2="23.8988" gradientUnits="userSpaceOnUse">
<stop stop-color="#DA88DE"/>
<stop offset="0.373617" stop-color="#5E75E8"/>
<stop offset="1" stop-color="#80C6EB"/>
</linearGradient>
<linearGradient id="paint9_linear_24_250" x1="10.2671" y1="8.66445e-10" x2="10.286" y2="23.8988" gradientUnits="userSpaceOnUse">
<stop stop-color="#DA88DE"/>
<stop offset="0.373617" stop-color="#5E75E8"/>
<stop offset="1" stop-color="#80C6EB"/>
</linearGradient>
<linearGradient id="paint10_linear_24_250" x1="10.2671" y1="8.66445e-10" x2="10.286" y2="23.8988" gradientUnits="userSpaceOnUse">
<stop stop-color="#DA88DE"/>
<stop offset="0.373617" stop-color="#5E75E8"/>
<stop offset="1" stop-color="#80C6EB"/>
</linearGradient>
<linearGradient id="paint11_linear_24_250" x1="10.2671" y1="8.66445e-10" x2="10.286" y2="23.8988" gradientUnits="userSpaceOnUse">
<stop stop-color="#DA88DE"/>
<stop offset="0.373617" stop-color="#5E75E8"/>
<stop offset="1" stop-color="#80C6EB"/>
</linearGradient>
<linearGradient id="paint12_linear_24_250" x1="10.2671" y1="8.66445e-10" x2="10.286" y2="23.8988" gradientUnits="userSpaceOnUse">
<stop stop-color="#DA88DE"/>
<stop offset="0.373617" stop-color="#5E75E8"/>
<stop offset="1" stop-color="#80C6EB"/>
</linearGradient>
<linearGradient id="paint13_linear_24_250" x1="10.2671" y1="8.66445e-10" x2="10.286" y2="23.8988" gradientUnits="userSpaceOnUse">
<stop stop-color="#DA88DE"/>
<stop offset="0.373617" stop-color="#5E75E8"/>
<stop offset="1" stop-color="#80C6EB"/>
</linearGradient>
<linearGradient id="paint14_linear_24_250" x1="10.2671" y1="8.66445e-10" x2="10.286" y2="23.8988" gradientUnits="userSpaceOnUse">
<stop stop-color="#DA88DE"/>
<stop offset="0.373617" stop-color="#5E75E8"/>
<stop offset="1" stop-color="#80C6EB"/>
</linearGradient>
<linearGradient id="paint15_linear_24_250" x1="10.2671" y1="8.66445e-10" x2="10.286" y2="23.8988" gradientUnits="userSpaceOnUse">
<stop stop-color="#DA88DE"/>
<stop offset="0.373617" stop-color="#5E75E8"/>
<stop offset="1" stop-color="#80C6EB"/>
</linearGradient>
<linearGradient id="paint16_linear_24_250" x1="10.2671" y1="8.66445e-10" x2="10.286" y2="23.8988" gradientUnits="userSpaceOnUse">
<stop stop-color="#DA88DE"/>
<stop offset="0.373617" stop-color="#5E75E8"/>
<stop offset="1" stop-color="#80C6EB"/>
</linearGradient>
<linearGradient id="paint17_linear_24_250" x1="10.2671" y1="8.66445e-10" x2="10.286" y2="23.8988" gradientUnits="userSpaceOnUse">
<stop stop-color="#DA88DE"/>
<stop offset="0.373617" stop-color="#5E75E8"/>
<stop offset="1" stop-color="#80C6EB"/>
</linearGradient>
<linearGradient id="paint18_linear_24_250" x1="10.2671" y1="8.66445e-10" x2="10.286" y2="23.8988" gradientUnits="userSpaceOnUse">
<stop stop-color="#DA88DE"/>
<stop offset="0.373617" stop-color="#5E75E8"/>
<stop offset="1" stop-color="#80C6EB"/>
</linearGradient>
<linearGradient id="paint19_linear_24_250" x1="10.2671" y1="8.66445e-10" x2="10.286" y2="23.8988" gradientUnits="userSpaceOnUse">
<stop stop-color="#DA88DE"/>
<stop offset="0.373617" stop-color="#5E75E8"/>
<stop offset="1" stop-color="#80C6EB"/>
</linearGradient>
<linearGradient id="paint20_linear_24_250" x1="10.2671" y1="8.66445e-10" x2="10.286" y2="23.8988" gradientUnits="userSpaceOnUse">
<stop stop-color="#DA88DE"/>
<stop offset="0.373617" stop-color="#5E75E8"/>
<stop offset="1" stop-color="#80C6EB"/>
</linearGradient>
<linearGradient id="paint21_linear_24_250" x1="10.2671" y1="8.66445e-10" x2="10.286" y2="23.8988" gradientUnits="userSpaceOnUse">
<stop stop-color="#DA88DE"/>
<stop offset="0.373617" stop-color="#5E75E8"/>
<stop offset="1" stop-color="#80C6EB"/>
</linearGradient>
<linearGradient id="paint22_linear_24_250" x1="10.2671" y1="8.66445e-10" x2="10.286" y2="23.8988" gradientUnits="userSpaceOnUse">
<stop stop-color="#DA88DE"/>
<stop offset="0.373617" stop-color="#5E75E8"/>
<stop offset="1" stop-color="#80C6EB"/>
</linearGradient>
<linearGradient id="paint23_linear_24_250" x1="10.2671" y1="8.66445e-10" x2="10.286" y2="23.8988" gradientUnits="userSpaceOnUse">
<stop stop-color="#DA88DE"/>
<stop offset="0.373617" stop-color="#5E75E8"/>
<stop offset="1" stop-color="#80C6EB"/>
</linearGradient>
<linearGradient id="paint24_linear_24_250" x1="10.2671" y1="8.66445e-10" x2="10.286" y2="23.8988" gradientUnits="userSpaceOnUse">
<stop stop-color="#DA88DE"/>
<stop offset="0.373617" stop-color="#5E75E8"/>
<stop offset="1" stop-color="#80C6EB"/>
</linearGradient>
<linearGradient id="paint25_linear_24_250" x1="10.2671" y1="8.66445e-10" x2="10.286" y2="23.8988" gradientUnits="userSpaceOnUse">
<stop stop-color="#DA88DE"/>
<stop offset="0.373617" stop-color="#5E75E8"/>
<stop offset="1" stop-color="#80C6EB"/>
</linearGradient>
<linearGradient id="paint26_linear_24_250" x1="10.2671" y1="8.66445e-10" x2="10.286" y2="23.8988" gradientUnits="userSpaceOnUse">
<stop stop-color="#DA88DE"/>
<stop offset="0.373617" stop-color="#5E75E8"/>
<stop offset="1" stop-color="#80C6EB"/>
</linearGradient>
<linearGradient id="paint27_linear_24_250" x1="10.2671" y1="8.66445e-10" x2="10.286" y2="23.8988" gradientUnits="userSpaceOnUse">
<stop stop-color="#DA88DE"/>
<stop offset="0.373617" stop-color="#5E75E8"/>
<stop offset="1" stop-color="#80C6EB"/>
</linearGradient>
<linearGradient id="paint28_linear_24_250" x1="10.2671" y1="8.66445e-10" x2="10.286" y2="23.8988" gradientUnits="userSpaceOnUse">
<stop stop-color="#DA88DE"/>
<stop offset="0.373617" stop-color="#5E75E8"/>
<stop offset="1" stop-color="#80C6EB"/>
</linearGradient>
<linearGradient id="paint29_linear_24_250" x1="10.2671" y1="8.66445e-10" x2="10.286" y2="23.8988" gradientUnits="userSpaceOnUse">
<stop stop-color="#DA88DE"/>
<stop offset="0.373617" stop-color="#5E75E8"/>
<stop offset="1" stop-color="#80C6EB"/>
</linearGradient>
<linearGradient id="paint30_linear_24_250" x1="10.2671" y1="8.66445e-10" x2="10.286" y2="23.8988" gradientUnits="userSpaceOnUse">
<stop stop-color="#DA88DE"/>
<stop offset="0.373617" stop-color="#5E75E8"/>
<stop offset="1" stop-color="#80C6EB"/>
</linearGradient>
<linearGradient id="paint31_linear_24_250" x1="10.2671" y1="8.66445e-10" x2="10.286" y2="23.8988" gradientUnits="userSpaceOnUse">
<stop stop-color="#DA88DE"/>
<stop offset="0.373617" stop-color="#5E75E8"/>
<stop offset="1" stop-color="#80C6EB"/>
</linearGradient>
<linearGradient id="paint32_linear_24_250" x1="10.2671" y1="8.66445e-10" x2="10.286" y2="23.8988" gradientUnits="userSpaceOnUse">
<stop stop-color="#DA88DE"/>
<stop offset="0.373617" stop-color="#5E75E8"/>
<stop offset="1" stop-color="#80C6EB"/>
</linearGradient>
<linearGradient id="paint33_linear_24_250" x1="10.2671" y1="8.66445e-10" x2="10.286" y2="23.8988" gradientUnits="userSpaceOnUse">
<stop stop-color="#DA88DE"/>
<stop offset="0.373617" stop-color="#5E75E8"/>
<stop offset="1" stop-color="#80C6EB"/>
</linearGradient>
</defs>
</svg>
