<svg width="22" height="22" viewBox="0 0 22 22" fill="none" xmlns="http://www.w3.org/2000/svg">
<path fill-rule="evenodd" clip-rule="evenodd" d="M21.6967 2.95865C21.6967 1.32464 20.3722 0 18.7381 0H2.95865C1.32464 0 0 1.32464 0 2.95865V12.8208C0 14.4549 1.32464 15.7794 2.95865 15.7794H3.94486C4.48953 15.7794 4.93108 15.3379 4.93108 14.7932C4.93108 14.2485 4.48953 13.807 3.94486 13.807H2.95865C2.41398 13.807 1.97243 13.3655 1.97243 12.8208V6.90351H19.7243V12.8208C19.7243 13.3655 19.2828 13.807 18.7381 13.807H17.7519C17.2072 13.807 16.7657 14.2485 16.7657 14.7932C16.7657 15.3379 17.2072 15.7794 17.7519 15.7794H18.7381C20.3722 15.7794 21.6967 14.4549 21.6967 12.8208V2.95865ZM19.7243 4.93108V2.95865C19.7243 2.41398 19.2828 1.97243 18.7381 1.97243H2.95865C2.41398 1.97243 1.97243 2.41397 1.97243 2.95865V4.93108H19.7243Z" fill="#475467"/>
<path d="M11.8346 20.7105C11.8346 21.2552 11.3931 21.6968 10.8484 21.6968C10.3037 21.6968 9.8622 21.2552 9.8622 20.7105V15.1945L8.58716 16.4694C8.20197 16.8547 7.57759 16.8547 7.1924 16.4694C6.80729 16.0845 6.80729 15.4599 7.1924 15.0749L10.1506 12.1229C10.5358 11.7384 11.1597 11.7387 11.5446 12.1236L14.5023 15.0814C14.8876 15.4666 14.8876 16.091 14.5023 16.4762C14.1172 16.8612 13.4928 16.8612 13.1076 16.4762L11.8346 15.2032V20.7105Z" fill="#475467"/>
</svg>
